<svg xmlns="http://www.w3.org/2000/svg" viewBox="0 0 64 64" width="64" height="64">
  <defs>
    <linearGradient id="g" x1="0" y1="0" x2="1" y2="1">
      <stop offset="0" stop-color="#6366f1"/>
      <stop offset="1" stop-color="#7c3aed"/>
    </linearGradient>
  </defs>
  <rect width="64" height="64" rx="14" fill="url(#g)"/>
  <g transform="translate(5.6 5.6) scale(2.2)">
    <path d="M7 6h10a6 6 0 0 1 6 6 6 6 0 0 1-6 6c-1.78 0-3.37-.77-4.47-2h-1.06c-1.1 1.23-2.69 2-4.47 2A6 6 0 0 1 1 12a6 6 0 0 1 6-6z" fill="#fff"/>
    <path d="M6 9v2H4v2h2v2h2v-2h2v-2H8V9H6z" fill="#fff"/>
    <circle cx="16.5" cy="12" r="1.5" fill="#fff"/>
    <circle cx="19.5" cy="9" r="1.5" fill="#fff"/>
  </g>
  <path d="M35.5 21 L24.5 35 h6 L28.5 43 39.5 28 h-6.5 z" fill="url(#g)"/>
</svg>